Coordinates
version=1
nRows=24
nColumns=24
inDegrees=yes

Units are S.I. units (second, meters, Newtons, ...)
Angles are in degrees.

endheader
time	pelvis_tilt	pelvis_list	pelvis_rotation	pelvis_tx	pelvis_ty	pelvis_tz	hip_flexion_r	hip_adduction_r	hip_rotation_r	knee_angle_r	ankle_angle_r	subtalar_angle_r	mtp_angle_r	hip_flexion_l	hip_adduction_l	hip_rotation_l	knee_angle_l	ankle_angle_l	subtalar_angle_l	mtp_angle_l	lumbar_extension	lumbar_bending	lumbar_rotation
      1.43716667	     -1.20795552	      0.89131622	     -2.19977521	      0.44361183	      1.08812673	      0.25145775	     15.40145169	     -4.05612604	     -5.05802038	    -59.96642841	      4.33768834	     -3.24909840	      6.72656591	      7.59333251	      2.88500163	      0.48798455	    -12.74483695	      7.73822154	      3.39860620	      2.91015031	    -16.24657525	     -4.49281267	     -2.80333558
      1.44133333	     -1.21292966	      0.78055269	     -2.09641491	      0.44848038	      1.08869473	      0.25091185	     15.76647488	     -3.93915348	     -5.22895200	    -59.31505604	      4.63817877	     -3.07496899	      6.75322412	      7.14911909	      2.80418484	      0.59216465	    -12.40405451	      7.78080227	      3.46004317	      2.90739107	    -16.20174720	     -4.29016030	     -2.88072806
      1.44550000	     -1.21044469	      0.67544161	     -1.98530125	      0.45334429	      1.08922461	      0.25037765	     16.11213146	     -3.83535342	     -5.41828234	    -58.63489302	      4.93298216	     -2.87805602	      6.78402516	      6.70321657	      2.72954348	      0.70996010	    -12.07714379	      7.85076340	      3.48723745	      2.90367337	    -16.14901015	     -4.11939469	     -2.99945900
      1.44966667	     -1.22343212	      0.58631543	     -1.89571433	      0.45818032	      1.08966161	      0.24988780	     16.48310019	     -3.74184746	     -5.58071232	    -57.95532387	      5.21768546	     -2.76724065	      6.80336404	      6.27028786	      2.66681532	      0.80639315	    -11.73445458	      7.90625631	      3.55047735	      2.90145584	    -16.10310109	     -3.94315754	     -3.06505205
      1.45383333	     -1.20236997	      0.49133167	     -1.78050734	      0.46299656	      1.09013324	      0.24934709	     16.79419578	     -3.65818139	     -5.78041507	    -57.22863322	      5.48606505	     -2.59870923	      6.84098193	      5.80724959	      2.60630524	      0.96809017	    -11.40552878	      7.98172499	      3.51067028	      2.89270223	    -16.08100369	     -3.77542528	     -3.26227845
      1.45800000	     -1.23934688	      0.39044800	     -1.69302077	      0.46783100	      1.09046269	      0.24889045	     17.16915808	     -3.54787853	     -5.94176682	    -56.48889042	      5.74047746	     -2.57389960	      6.85390956	      5.41450886	      2.52439025	      1.04201189	    -11.09231618	      8.03573539	      3.57440044	      2.89045238	    -15.99657311	     -3.60125105	     -3.28901385
      1.46216667	     -1.24898545	      0.29037278	     -1.59636598	      0.47262828	      1.09078726	      0.24842035	     17.50409717	     -3.44713468	     -6.11906258	    -55.72364387	      5.98118665	     -2.53582774	      6.86570763	      5.00072658	      2.44555068	      1.13793858	    -10.79327030	      8.11813880	      3.61705377	      2.88840464	    -15.94417386	     -3.42513154	     -3.34996619
      1.46633333	     -1.25329314	      0.19894810	     -1.48788351	      0.47741448	      1.09108304	      0.24794370	     17.82145607	     -3.36223591	     -6.31125328	    -54.93179749	      6.18506840	     -2.50973896	      6.88260762	      4.58159643	      2.38003988	      1.28992006	    -10.49440852	      8.20542767	      3.57225590	      2.88023348	    -15.89671105	     -3.26268150	     -3.52656373
      1.47050000	     -1.28328849	      0.10562539	     -1.40102262	      0.48218716	      1.09129314	      0.24752784	     18.16519112	     -3.26213012	     -6.47407513	    -54.12618371	      6.40842902	     -2.54965412	      6.88964262	      4.20210278	      2.30297927	      1.36983269	    -10.21618360	      8.27129032	      3.59488904	      2.87573072	    -15.82063300	     -3.10859635	     -3.57596172
      1.47466667	     -1.31166005	      0.02340346	     -1.31424580	      0.48694382	      1.09145494	      0.24712557	     18.50340422	     -3.17580612	     -6.63615576	    -53.30771733	      6.58360764	     -2.62514119	      6.89228601	      3.81591319	      2.23967779	      1.49265420	     -9.92643709	      8.36389992	      3.58038838	      2.86816466	    -15.75498544	     -2.95627283	     -3.68659378
      1.47883333	     -1.35152251	     -0.04289570	     -1.24862252	      0.49168133	      1.09152763	      0.24678372	     18.85806791	     -3.09992853	     -6.77431573	    -52.49332852	      6.80667455	     -2.70175925	      6.89261371	      3.45290438	      2.18626790	      1.54792800	     -9.65533614	      8.44956703	      3.62785290	      2.86688991	    -15.68070790	     -2.83641258	     -3.70903363
      1.48300000	     -1.38102393	     -0.13285596	     -1.15833441	      0.49639965	      1.09162353	      0.24641481	     19.17472678	     -3.00135548	     -6.93473277	    -51.62065774	      6.95682142	     -2.82574795	      6.88605579	      3.09571463	      2.10822101	      1.63956976	     -9.41945957	      8.54749146	      3.62841022	      2.86387284	    -15.61279361	     -2.68764741	     -3.76980970
      1.48716667	     -1.40140289	     -0.20602948	     -1.08617527	      0.50109371	      1.09167874	      0.24609980	     19.48516846	     -2.91347004	     -7.07076963	    -50.74817498	      7.07400197	     -3.00193310	      6.86912297	      2.71593448	      2.04817844	      1.75230935	     -9.15390992	      8.65266410	      3.60554409	      2.85769275	    -15.56589851	     -2.55772218	     -3.87083495
      1.49133333	     -1.45439015	     -0.28115253	     -1.01415912	      0.50578977	      1.09163030	      0.24579976	     19.82194783	     -2.82215316	     -7.20495550	    -49.86109423	      7.23702816	     -3.15060136	      6.85700068	      2.39209240	      1.98086135	      1.81875536	     -8.93121611	      8.75146188	      3.61934590	      2.85547787	    -15.48005208	     -2.43137826	     -3.90409792
      1.49550000	     -1.49418583	     -0.33812707	     -0.95777891	      0.51046622	      1.09156090	      0.24554561	     20.14759488	     -2.74530639	     -7.32047601	    -48.97552507	      7.38302311	     -3.31698524	      6.84504458	      2.04424868	      1.93190397	      1.88921971	     -8.68446369	      8.86975773	      3.64998492	      2.85502000	    -15.41776864	     -2.32360091	     -3.93668669
      1.49966667	     -1.51629630	     -0.40931967	     -0.88134566	      0.51509868	      1.09149859	      0.24528614	     20.43236521	     -2.65054635	     -7.44136448	    -48.04178649	      7.44958089	     -3.55597123	      6.82029232	      1.70340644	      1.86675614	      1.97432313	     -8.49123300	      8.98528428	      3.63222804	      2.85244435	    -15.37358621	     -2.20994567	     -3.99989538
      1.50383333	     -1.55661547	     -0.45523074	     -0.82295701	      0.51973275	      1.09134469	      0.24507895	     20.74334126	     -2.57711112	     -7.53856138	    -47.12277781	      7.54418537	     -3.76849558	      6.79481284	      1.37528204	      1.82661927	      2.05071936	     -8.28220422	      9.10304544	      3.62695442	      2.85019118	    -15.31459594	     -2.12390587	     -4.05006264
      1.50800000	     -1.60966299	     -0.50436693	     -0.76433711	      0.52436197	      1.09113693	      0.24488682	     21.05926514	     -2.49737345	     -7.63181227	    -46.18665899	      7.62245357	     -3.98608293	      6.76790590	      1.06710971	      1.78145769	      2.12697077	     -8.08524760	      9.22880997	      3.62378298	      2.84856960	    -15.24212573	     -2.03837772	     -4.08984556
      1.51216667	     -1.64269341	     -0.53573217	     -0.71266025	      0.52895883	      1.09091732	      0.24473173	     21.35224462	     -2.43061638	     -7.70687517	    -45.24517413	      7.68642231	     -4.21031992	      6.73672184	      0.74096193	      1.75403480	      2.19923512	     -7.89387976	      9.35649530	      3.61554285	      2.84671731	    -15.19753541	     -1.97623589	     -4.13182823
      1.51633333	     -1.68826150	     -0.56900371	     -0.66072557	      0.53356412	      1.09064197	      0.24459392	     21.64987726	     -2.35983970	     -7.77874354	    -44.29248938	      7.74865491	     -4.41694274	      6.70732789	      0.43227953	      1.72245862	      2.26994513	     -7.71179440	      9.49000885	      3.61147055	      2.84536608	    -15.14136209	     -1.91233088	     -4.16274412
      1.52050000	     -1.74063060	     -0.59039098	     -0.61096652	      0.53815893	      1.09031626	      0.24448225	     21.95113053	     -2.29685885	     -7.83684741	    -43.33338651	      7.79501517	     -4.62181623	      6.67715564	      0.13507631	      1.70239704	      2.34164677	     -7.53749263	      9.62548861	      3.60311695	      2.84412992	    -15.08032281	     -1.86493370	     -4.19225862
      1.52466667	     -1.78121566	     -0.57995825	     -0.58053708	      0.54274297	      1.08994800	      0.24441710	     22.24786015	     -2.26272570	     -7.86812804	    -42.39457592	      7.88602520	     -4.73848877	      6.66295587	     -0.18110998	      1.71595344	      2.40047596	     -7.35017315	      9.77824845	      3.63057738	      2.84570739	    -15.01928818	     -1.86426679	     -4.20872995
      1.52883333	     -1.81982692	     -0.62517144	     -0.51833531	      0.54731902	      1.08960107	      0.24431585	     22.50577932	     -2.16821277	     -7.92449638	    -41.38381613	      7.85540266	     -4.98830350	      6.62797134	     -0.47626674	      1.66680210	      2.47430889	     -7.21078601	      9.91190793	      3.59372613	      2.84366557	    -14.99622429	     -1.78652625	     -4.23730686
      1.53300000	     -1.86179923	     -0.59011035	     -0.49556549	      0.55188640	      1.08913997	      0.24430388	     22.80121621	     -2.15339073	     -7.93336080	    -40.44693963	      7.94138653	     -5.06073556	      6.61624970	     -0.78612725	      1.70430782	      2.52595057	     -7.03335056	     10.06957260	      3.61732791	      2.84555309	    -14.94405496	     -1.82317557	     -4.25510140
